<?xml version="1.0" standalone="no"?>
<!DOCTYPE svg PUBLIC "-//W3C//DTD SVG 20010904//EN"
 "http://www.w3.org/TR/2001/REC-SVG-20010904/DTD/svg10.dtd">
<svg version="1.0" xmlns="http://www.w3.org/2000/svg"
 width="225.000000pt" height="225.000000pt" viewBox="0 0 225.000000 225.000000"
 preserveAspectRatio="xMidYMid meet">

<g transform="translate(0.000000,225.000000) scale(0.100000,-0.100000)"
fill="#000000" stroke="none">
<path d="M735 1372 c-83 -48 -182 -105 -219 -127 -38 -22 -74 -51 -82 -67 -21
-41 -18 -93 9 -122 26 -30 427 -262 468 -271 65 -14 140 60 124 123 -12 51
-34 70 -160 142 l-126 72 28 17 c15 9 74 43 130 76 80 45 106 66 119 93 35 73
-17 152 -99 152 -34 0 -70 -16 -192 -88z"/>
<path d="M1257 1440 c-38 -30 -52 -80 -34 -122 8 -18 23 -40 33 -49 38 -32
424 -249 452 -255 34 -7 83 15 106 48 24 34 21 102 -6 131 -13 14 -118 79
-235 146 -230 132 -263 142 -316 101z"/>
</g>
</svg>
